<svg width="9" height="14" viewBox="0 0 9 14" fill="none" xmlns="http://www.w3.org/2000/svg">
<path d="M8.85545 1.49196L8.85545 12.508C8.85667 12.7039 8.79544 12.8957 8.67957 13.059C8.56369 13.2222 8.39843 13.3495 8.20484 13.4246C8.01125 13.4997 7.79811 13.5193 7.5926 13.4807C7.38708 13.4422 7.1985 13.3473 7.05089 13.2083L1.16234 7.69528C0.965792 7.5105 0.855469 7.26054 0.855469 7C0.855469 6.73945 0.965792 6.48949 1.16234 6.30471L7.0509 0.791739C7.1985 0.652654 7.38708 0.557798 7.5926 0.519267C7.79812 0.480736 8.01126 0.500275 8.20484 0.575392C8.39843 0.650509 8.5637 0.777801 8.67957 0.94104C8.79544 1.10428 8.85667 1.29607 8.85545 1.49196Z" fill="#EA0202"/>
</svg>
